<svg width="200" height="200" viewBox="0 0 200 200" fill="none" xmlns="http://www.w3.org/2000/svg">
<path d="M97.424 127.91V137.596C97.424 141.946 92.942 144.304 90.36 144.304C86.013 144.304 82.059 139.254 77.594 135.61C64.6 125.028 53.021 115.928 40.342 104.148C37.084 101.121 36.862 95.3357 40.342 92.0627C52.947 80.1957 64.6 71.1797 77.594 60.6007C82.057 56.9547 86.013 51.9058 90.36 51.9058C92.942 51.9058 97.424 54.2637 97.424 58.6137V68.3018H169.882C175.363 68.3018 179.807 72.9958 179.807 78.7878V117.421C179.807 123.214 175.364 127.911 169.882 127.911L97.424 127.91Z" fill="#FFD36C"/>
<path d="M129.092 34H41.137C30.022 34 21.01 43.012 21.01 54.127V145.309C21.01 156.424 30.022 165.436 41.137 165.436H129.092C140.209 165.436 149.217 156.424 149.217 145.309V54.127C149.217 43.012 140.209 34 129.092 34Z" fill="url(#paint0_linear_2864_76)"/>
<path d="M21 130.133V145.309C21 156.424 30.012 165.436 41.127 165.436H129.081C140.196 165.436 149.211 156.424 149.211 145.309V130.368C130.634 127.294 108.35 125.505 84.387 125.505C61.04 125.504 39.285 127.203 21 130.133Z" fill="url(#paint1_linear_2864_76)"/>
<path d="M149.209 127.91V68.3008H97.412V58.6128C97.412 54.2628 92.9301 51.9048 90.3481 51.9048C86.0001 51.9048 82.045 56.9548 77.582 60.5998C64.59 71.1788 52.9391 80.1948 40.3291 92.0618C36.8501 95.3348 37.0721 101.12 40.3291 104.147C53.0071 115.927 64.59 125.027 77.582 135.609C82.045 139.254 86.0001 144.303 90.3481 144.303C92.9301 144.303 97.412 141.945 97.412 137.595V127.909H149.209V127.91Z" fill="url(#paint2_linear_2864_76)"/>
<defs>
<linearGradient id="paint0_linear_2864_76" x1="19.9249" y1="100.806" x2="150.3" y2="98.6326" gradientUnits="userSpaceOnUse">
<stop stop-color="#F83CFE"/>
<stop offset="1" stop-color="#4427E9"/>
</linearGradient>
<linearGradient id="paint1_linear_2864_76" x1="19.7894" y1="130.779" x2="150.28" y2="160.889" gradientUnits="userSpaceOnUse">
<stop stop-color="#9520A7"/>
<stop offset="1" stop-color="#4896BB"/>
</linearGradient>
<linearGradient id="paint2_linear_2864_76" x1="49.0819" y1="153.049" x2="150.488" y2="57.463" gradientUnits="userSpaceOnUse">
<stop stop-color="#FFD268"/>
<stop offset="0.2314" stop-color="#FFD268"/>
<stop offset="0.9624" stop-color="#EA728D"/>
<stop offset="1" stop-color="#EF98A3"/>
</linearGradient>
</defs>
</svg>
